<?xml version="1.0" encoding="UTF-8"?>
<svg xmlns="http://www.w3.org/2000/svg" width="128" height="128" viewBox="0 0 128 128">
<g transform="translate(0.000000,128.000000) scale(0.100000,-0.100000)"
fill="#FF0000" stroke="none">
<path d="M458 1109 c-20 -11 -23 -40 -7 -56 9 -9 7 -11 -8 -7 -11 3 -24 -1
-30 -8 -17 -21 -313 -547 -313 -556 1 -18 167 -296 183 -306 15 -9 22 -7 36
10 17 21 18 21 29 3 11 -17 25 -19 135 -19 122 0 122 0 139 -29 27 -49 71 -66
168 -66 133 0 216 46 236 131 3 16 37 84 75 150 38 67 69 126 69 131 0 6 -7
16 -15 23 -8 7 -15 18 -15 25 0 18 -316 566 -332 577 -19 11 -330 9 -350 -3z
m447 -304 l133 -230 -101 -3 c-55 -1 -106 -1 -112 2 -6 2 -60 89 -120 193 -59
103 -119 207 -133 231 -24 43 -24 43 88 40 l112 -3 133 -230z m-410 31 c30
-52 55 -96 55 -99 0 -6 -226 -403 -245 -430 -11 -16 -18 -7 -64 75 -28 51 -52
95 -54 99 -2 5 245 449 250 449 1 0 27 -42 58 -94z m208 -216 l55 -95 -115 -3
c-64 -1 -117 -1 -120 1 -2 2 23 49 54 105 32 56 61 98 65 94 3 -4 31 -50 61
-102z m321 -247 c-21 -38 -39 -70 -41 -72 -10 -12 -39 35 -48 77 -13 61 -39
67 -97 20 -45 -35 -73 -39 -175 -23 -52 8 -53 7 -53 -17 0 -14 7 -42 15 -61 8
-20 15 -39 15 -42 0 -3 -45 -5 -100 -5 -100 0 -100 0 -86 23 7 12 32 55 55 95
l42 72 255 0 255 0 -37 -67z m-111 -7 c3 -19 17 -52 31 -73 64 -93 -4 -163
-158 -163 -99 0 -144 40 -125 111 5 17 0 41 -12 69 -11 24 -18 45 -15 47 2 2
28 -2 58 -10 72 -19 115 -11 162 29 21 18 42 31 46 29 4 -3 10 -20 13 -39z"/>
<path d="M872 308 c-18 -18 -15 -53 8 -79 17 -21 21 -22 30 -9 13 18 5 70 -13
87 -10 10 -16 10 -25 1z"/>
<path d="M722 278 c-18 -18 -15 -53 8 -79 17 -21 21 -22 30 -9 13 18 5 70 -13
87 -10 10 -16 11 -25 1z"/>
</g>
<g transform="translate(0.000000,128.000000) scale(0.100000,-0.100000)"
fill="#000000" stroke="none">
<path d="M470 1085 c0 -3 73 -131 161 -285 l162 -280 157 0 c86 0 159 2 162 5
3 3 -67 132 -155 285 l-161 280 -163 0 c-90 0 -163 -2 -163 -5z m429 -274 c72
-125 131 -231 131 -235 0 -4 -48 -5 -106 -4 l-106 3 -127 220 c-69 121 -130
226 -134 233 -6 9 16 12 102 12 l110 0 130 -229z"/>
<path d="M289 768 c-78 -139 -146 -260 -151 -268 -7 -11 12 -54 70 -155 43
-77 83 -139 88 -138 8 2 302 505 307 525 3 10 -156 287 -164 288 -4 0 -71
-114 -150 -252z m209 60 l52 -91 -127 -222 c-146 -254 -120 -242 -198 -99 -38
70 -38 70 84 287 68 119 126 217 130 217 3 0 30 -41 59 -92z"/>
<path d="M446 355 c-42 -75 -76 -140 -76 -145 0 -6 52 -10 129 -10 128 0 129
0 135 -24 16 -63 139 -94 247 -62 72 21 95 41 117 101 10 28 46 99 80 159 34
60 62 110 62 112 0 2 -139 4 -309 4 l-308 0 -77 -135z m403 52 c-66 -51 -89
-53 -200 -21 -9 3 -24 -2 -33 -11 -14 -14 -14 -20 4 -64 10 -27 16 -52 13 -55
-8 -7 -183 -8 -183 -1 0 3 23 46 51 95 50 90 50 90 221 90 171 0 171 0 127
-33z m175 -29 c-20 -35 -39 -67 -43 -71 -11 -11 -37 31 -45 75 -4 21 -14 42
-24 47 -12 8 6 10 65 11 82 0 82 0 47 -62z m-114 -14 c0 -12 13 -41 30 -65 47
-69 40 -108 -24 -141 -51 -26 -163 -36 -206 -18 -40 17 -51 40 -49 98 1 26 -5
63 -15 85 -9 20 -15 37 -14 37 2 0 28 -7 58 -15 70 -19 115 -11 165 31 41 34
55 31 55 -12z"/>
<path d="M866 304 c-11 -30 -6 -61 13 -78 11 -10 25 -15 30 -11 16 9 13 57 -5
83 -18 26 -30 28 -38 6z"/>
<path d="M716 274 c-11 -30 -6 -61 13 -78 11 -10 25 -15 30 -11 16 9 13 57 -5
83 -18 26 -30 28 -38 6z"/>
</g>
</svg>
